<?xml version="1.0" encoding="UTF-8"?>
<svg xmlns="http://www.w3.org/2000/svg" xmlns:xlink="http://www.w3.org/1999/xlink" width="80px" height="80px" viewBox="0 0 80 80" version="1.1">
<g id="surface1">
<path style=" stroke:none;fill-rule:nonzero;fill:rgb(0%,0%,0%);fill-opacity:1;" d="M 38.917969 0 C 52.757812 0 66.382812 6.375 66.382812 21.617188 C 66.382812 35.675781 50.273438 41.082031 46.8125 46.160156 C 44.214844 49.9375 45.082031 55.246094 37.949219 55.246094 C 33.300781 55.246094 31.027344 51.464844 31.027344 48.007812 C 31.027344 35.132812 49.945312 32.21875 49.945312 21.621094 C 49.945312 15.785156 46.058594 12.324219 39.570312 12.324219 C 25.730469 12.324219 31.136719 26.59375 20.65625 26.59375 C 16.871094 26.59375 13.625 24.320312 13.625 20 C 13.621094 9.394531 25.726562 0 38.917969 0 Z M 38.382812 62.265625 C 43.238281 62.265625 47.246094 66.261719 47.246094 71.132812 C 47.246094 76.007812 43.246094 80.003906 38.382812 80.003906 C 33.515625 80.003906 29.511719 76.011719 29.511719 71.132812 C 29.511719 66.265625 33.515625 62.265625 38.382812 62.265625 Z M 38.382812 62.265625 "/>
</g>
</svg>
